name Walk5.mot
datacolumns 19
datarows 10
range 1.94000000 1.94900000
endheader

                time	   L_ground_force_vx	   L_ground_force_vy	   L_ground_force_vz	   L_ground_force_px	   L_ground_force_py	   L_ground_force_pz	   R_ground_force_vx	   R_ground_force_vy	   R_ground_force_vz	   R_ground_force_px	   R_ground_force_py	   R_ground_force_pz	   L_ground_torque_x	   L_ground_torque_y	   L_ground_torque_z	   R_ground_torque_x	   R_ground_torque_y	   R_ground_torque_z	
          1.94000000	        -24.65278228	        580.19654466	         25.13580443	          0.40834683	          0.00000000	          0.26171729	          0.00000000	          0.00000000	          0.00000000	          0.00000000	          0.00000000	          0.00000000	          0.00000000	         -1.67065962	          0.00000000	          0.00000000	          0.00000000	          0.00000000	
          1.94100000	        -24.34444258	        578.52416596	         25.08427667	          0.40888117	          0.00000000	          0.26168564	          0.00000000	          0.00000000	          0.00000000	          0.00000000	          0.00000000	          0.00000000	          0.00000000	         -1.70915696	          0.00000000	          0.00000000	          0.00000000	          0.00000000	
          1.94200000	        -24.01187078	        576.78378892	         25.02673687	          0.40943856	          0.00000000	          0.26160097	          0.00000000	          0.00000000	          0.00000000	          0.00000000	          0.00000000	          0.00000000	          0.00000000	         -1.75074676	          0.00000000	          0.00000000	          0.00000000	          0.00000000	
          1.94300000	        -23.65875340	        574.96871681	         24.98048032	          0.41003217	          0.00000000	          0.26147379	          0.00000000	          0.00000000	          0.00000000	          0.00000000	          0.00000000	          0.00000000	          0.00000000	         -1.79325699	          0.00000000	          0.00000000	          0.00000000	          0.00000000	
          1.94400000	        -23.29711632	        573.08300980	         24.95110147	          0.41063735	          0.00000000	          0.26132649	          0.00000000	          0.00000000	          0.00000000	          0.00000000	          0.00000000	          0.00000000	          0.00000000	         -1.83726421	          0.00000000	          0.00000000	          0.00000000	          0.00000000	
          1.94500000	        -22.94729698	        571.17017024	         24.93193175	          0.41121933	          0.00000000	          0.26121186	          0.00000000	          0.00000000	          0.00000000	          0.00000000	          0.00000000	          0.00000000	          0.00000000	         -1.88174619	          0.00000000	          0.00000000	          0.00000000	          0.00000000	
          1.94600000	        -22.63320182	        569.33599196	         24.91209429	          0.41175839	          0.00000000	          0.26119242	          0.00000000	          0.00000000	          0.00000000	          0.00000000	          0.00000000	          0.00000000	          0.00000000	         -1.92247167	          0.00000000	          0.00000000	          0.00000000	          0.00000000	
          1.94700000	        -22.37744983	        567.69139712	         24.88267223	          0.41227092	          0.00000000	          0.26128283	          0.00000000	          0.00000000	          0.00000000	          0.00000000	          0.00000000	          0.00000000	          0.00000000	         -1.95492733	          0.00000000	          0.00000000	          0.00000000	          0.00000000	
          1.94800000	        -22.19581385	        566.25218854	         24.84099361	          0.41280421	          0.00000000	          0.26142504	          0.00000000	          0.00000000	          0.00000000	          0.00000000	          0.00000000	          0.00000000	          0.00000000	         -1.97860377	          0.00000000	          0.00000000	          0.00000000	          0.00000000	
          1.94900000	        -22.09385910	        564.92007430	         24.79422776	          0.41338502	          0.00000000	          0.26153608	          0.00000000	          0.00000000	          0.00000000	          0.00000000	          0.00000000	          0.00000000	          0.00000000	         -1.99910322	          0.00000000	          0.00000000	          0.00000000	          0.00000000	
